<?xml version="1.0" encoding="utf-8"?>
<!-- Generator: Adobe Illustrator 19.2.0, SVG Export Plug-In . SVG Version: 6.00 Build 0)  -->
<svg version="1.1" id="Layer_1" xmlns="http://www.w3.org/2000/svg" xmlns:xlink="http://www.w3.org/1999/xlink" x="0px" y="0px"
	 viewBox="0 0 399.9 464.9" style="enable-background:new 0 0 399.9 464.9;" xml:space="preserve">
<style type="text/css">
	.st0{font-family:'Roboto-Bold';}
	.st1{font-size:27.54px;}
	.st2{fill:#888888;}
	.st3{font-family:'Roboto-Regular';}
	.st4{font-size:18.36px;}
	.st5{fill:#01579B;}
	.st6{fill:#03A9F4;}
	.st7{fill:#212121;}
	.st8{fill:#B3E5FC;}
	.st9{fill:#E65100;}
	.st10{fill:#E9E9E9;}
</style>
<text transform="matrix(1 0 0 1 30.6616 55.6309)" class="st0 st1">Same-sex Adoption</text>
<text transform="matrix(1 0 0 1 31.9468 98.5928)" class="st2 st3 st4">The ability for same-sex couples to</text>
<text transform="matrix(1 0 0 1 31.9468 120.625)" class="st2 st3 st4">legally adopt a child.</text>
<g>
	<rect x="31.9" y="170.2" class="st5" width="18.7" height="18.7"/>
	<rect x="31.9" y="203.2" class="st6" width="18.7" height="18.7"/>
</g>
<text transform="matrix(1 0 0 1 62.4243 188.9238)" class="st7 st3 st4">Legal, but requires surgery</text>
<text transform="matrix(1 0 0 1 62.4243 221.9727)" class="st7 st3 st4">Married couples only</text>
<rect x="31.9" y="234.6" class="st8" width="18.7" height="18.7"/>
<rect x="31.9" y="267.7" class="st9" width="18.7" height="18.7"/>
<text transform="matrix(1 0 0 1 62.4243 253.3682)" class="st7 st3 st4">Single only</text>
<text transform="matrix(1 0 0 1 62.4243 286.416)" class="st7 st3 st4">Illegal</text>
<rect x="31.9" y="301.7" class="st10" width="18.7" height="18.7"/>
<text transform="matrix(1 0 0 1 62.4244 320.4018)" class="st7 st3 st4">Unknown, N/A, or ambiguous</text>
</svg>
